# xmcd
#
# Track frame offsets:
#	150
#	25009
#	44961
#	59643
#	78181
#	90977
#	130654
#	140486
#	170866
#
# Disc length: 2525 seconds
#
# Revision: 1
# Processed by: cddbd v1.5.2PL0 Copyright (c) Steve Scherf et al.
# Submitted via: audiograbber 1.83.01
#
DISCID=7909db09
DTITLE=Harris Newman - Decorated
DYEAR=2006
DGENRE=
TTITLE0=Our Cavalcade Of Sightless Riders
TTITLE1=Anamnesis
TTITLE2=Decorated
TTITLE3=The Malarial Two-Step
TTITLE4=Blues For Vilhelm
TTITLE5=Golden Valleys As Seen From The East
TTITLE6=We Return To Black Wolf Mountain
TTITLE7=Opera House Stomp
TTITLE8=A Quarter To Call The Ambulance
EXTD=
EXTT0=
EXTT1=
EXTT2=
EXTT3=
EXTT4=
EXTT5=
EXTT6=
EXTT7=
EXTT8=
PLAYORDER=
